<svg width="20" height="20" viewBox="0 0 20 20" fill="none" xmlns="http://www.w3.org/2000/svg">
<g clip-path="url(#clip0_9_201)">
<path d="M19.9516 9.98532C19.9628 9.79314 19.9222 9.59939 19.8075 9.43782C18.4581 7.53439 16.8947 5.83595 14.9506 4.46563C12.3184 2.68438 9.30062 2.26563 6.3725 3.65563C5.07375 4.27157 3.9075 5.20001 2.885 6.17126C1.89 7.11501 0.817496 8.25845 0.145621 9.43939C0.0514845 9.60659 0.00147576 9.79501 0.000308331 9.98689H0.00155833C-0.00969167 10.1791 0.0309333 10.3728 0.145621 10.5341C1.49562 12.4375 3.05937 14.1359 5.00281 15.5069C7.635 17.2872 10.6528 17.7069 13.5809 16.3163C14.8797 15.7003 16.0456 14.7719 17.0681 13.8038C18.0631 12.86 19.1362 11.7163 19.8075 10.5353C19.8997 10.3728 19.9534 10.1791 19.9534 9.98814H19.9516" fill="#F9B233"/>
<path d="M17.5969 9.9853C17.6056 9.83811 17.5738 9.68968 17.4863 9.56749C16.455 8.11186 15.2603 6.81437 13.776 5.76812C11.7647 4.40749 9.4597 4.08843 7.22252 5.14937C6.23064 5.61968 5.33814 6.32968 4.55783 7.0703C3.79783 7.79093 2.9797 8.6653 2.46439 9.5678C2.39231 9.6953 2.35412 9.83915 2.35345 9.98561H2.35533C2.34595 10.1322 2.37783 10.2806 2.46502 10.4037C3.49627 11.8584 4.69127 13.1562 6.17564 14.2022C8.18689 15.5628 10.4919 15.8828 12.7294 14.8212C13.7213 14.3506 14.6138 13.6409 15.3938 12.9006C16.1541 12.18 16.9741 11.305 17.4869 10.4034C17.5572 10.2794 17.5978 10.1312 17.5978 9.9853H17.5969" fill="white"/>
<path d="M6.81845 14.2031C5.33313 13.1569 4.13876 11.8594 3.10813 10.4047C3.02032 10.2809 2.98907 10.1325 2.99782 9.98656H2.99657C2.99657 9.83937 3.03657 9.69218 3.10751 9.56874C3.62063 8.66656 4.44032 7.79187 5.20001 7.07124C5.98126 6.33062 6.87251 5.62062 7.8647 5.15093C8.66282 4.77187 9.46845 4.57062 10.2678 4.52749C9.26095 4.47374 8.23532 4.66968 7.22282 5.15093C6.23095 5.62062 5.33845 6.33062 4.55813 7.07124C3.79813 7.79187 2.98001 8.66624 2.4647 9.56874C2.39254 9.69621 2.35434 9.84008 2.35376 9.98656H2.35563C2.34626 10.1325 2.37813 10.2809 2.46532 10.4047C3.49657 11.8594 4.69157 13.1572 6.17595 14.2031C7.47032 15.0784 8.88563 15.5222 10.3266 15.4456C9.10907 15.3806 7.91938 14.9481 6.81845 14.2031" fill="#CCCCCC"/>
<path d="M13.2343 14.2063C14.7193 13.1591 15.914 11.8622 16.9447 10.4069C17.0331 10.2841 17.064 10.1356 17.0556 9.98938H17.0562C17.0562 9.8422 17.0153 9.69532 16.9453 9.57095C16.4322 8.66876 15.6122 7.79407 14.8528 7.07376C14.0709 6.33376 13.18 5.62438 12.1878 5.15313C11.39 4.7747 10.5837 4.57313 9.78498 4.5297C10.7922 4.47657 11.8175 4.67251 12.83 5.15313C13.8219 5.62438 14.7112 6.33345 15.4934 7.07376C16.254 7.79438 17.074 8.66876 17.5865 9.57095C17.6581 9.69501 17.6984 9.8422 17.6984 9.98938H17.6959C17.7059 10.1356 17.6734 10.2841 17.5862 10.4069C16.5556 11.8622 15.3606 13.1594 13.8765 14.2063C12.5825 15.0816 11.1665 15.525 9.72498 15.4481C10.9437 15.3828 12.1334 14.9513 13.2343 14.2063" fill="#BCBEC0"/>
<path d="M12.4756 9.9872C12.4756 10.6501 12.2123 11.2858 11.7436 11.7545C11.2748 12.2232 10.6391 12.4866 9.97624 12.4866C9.31337 12.4866 8.67764 12.2232 8.20892 11.7545C7.74019 11.2858 7.47687 10.6501 7.47687 9.9872C7.47687 9.32432 7.74019 8.6886 8.20892 8.21987C8.67764 7.75115 9.31337 7.48782 9.97624 7.48782C10.6391 7.48782 11.2748 7.75115 11.7436 8.21987C12.2123 8.6886 12.4756 9.32432 12.4756 9.9872" fill="#895800"/>
<path d="M9.97627 5.48001C7.48784 5.48001 5.47034 7.49751 5.47034 9.9872C5.47034 12.4759 7.48784 14.4934 9.97627 14.4934C12.4653 14.4934 14.4835 12.4759 14.4835 9.9872C14.4838 7.49751 12.4656 5.48001 9.97627 5.48001ZM9.97627 12.4931C9.32438 12.4931 8.69919 12.2342 8.23823 11.7732C7.77727 11.3123 7.51831 10.6871 7.51831 10.0352C7.51831 9.38327 7.77727 8.75808 8.23823 8.29712C8.69919 7.83616 9.32438 7.5772 9.97627 7.5772C10.6282 7.5772 11.2534 7.83616 11.7143 8.29712C12.1753 8.75808 12.4342 9.38327 12.4342 10.0352C12.4342 10.6871 12.1753 11.3123 11.7143 11.7732C11.2534 12.2342 10.6282 12.4931 9.97627 12.4931" fill="#6A9B2D"/>
<path d="M11.6156 10.0344C11.6157 10.2496 11.5733 10.4626 11.491 10.6614C11.4087 10.8602 11.288 11.0409 11.1359 11.193C10.9837 11.3452 10.8031 11.4659 10.6043 11.5482C10.4055 11.6305 10.1924 11.6729 9.97721 11.6728C9.54256 11.6728 9.12568 11.5002 8.81822 11.193C8.51075 10.8858 8.33786 10.469 8.33752 10.0344C8.33752 9.59968 8.51021 9.18278 8.81759 8.87539C9.12498 8.56801 9.54188 8.39532 9.97659 8.39532C10.4113 8.39532 10.8282 8.56801 11.1356 8.87539C11.443 9.18278 11.6156 9.59968 11.6156 10.0344" fill="#242F35"/>
</g>
<defs>
<clipPath id="clip0_9_201">
<rect width="20" height="20" fill="white"/>
</clipPath>
</defs>
</svg>
